<?xml version="1.0" encoding="UTF-8"?>
<svg version="1.1" xmlns="http://www.w3.org/2000/svg" width="1119" height="1119">
<path d="M0 0 C1.21658142 0.00027654 1.21658142 0.00027654 2.45774025 0.00055867 C3.31301872 -0.00311801 4.16829719 -0.0067947 5.04949319 -0.0105828 C7.9387909 -0.02166688 10.82805271 -0.02547161 13.71736854 -0.02927226 C15.78020033 -0.03553388 17.84303097 -0.0421804 19.90586036 -0.04918498 C25.53065908 -0.06663504 31.15544926 -0.07715989 36.78026837 -0.08539051 C40.2972665 -0.09053736 43.81426198 -0.09661356 47.33125824 -0.10290164 C58.34211332 -0.12197388 69.35296165 -0.13619475 80.36383009 -0.14451361 C93.05824287 -0.15426274 105.7524802 -0.18051282 118.44683123 -0.2210145 C128.26358221 -0.25125445 138.08028319 -0.26599036 147.89707983 -0.26929462 C153.75618579 -0.2716382 159.61510478 -0.28050671 165.47416061 -0.30575579 C170.99895627 -0.32917616 176.52344378 -0.33321391 182.04827636 -0.32299441 C184.06532646 -0.32250215 186.08239241 -0.32873014 188.09939522 -0.34255046 C216.76767063 -0.52782191 216.76767063 -0.52782191 227.3968119 7.14772969 C227.3968119 7.80772969 227.3968119 8.46772969 227.3968119 9.14772969 C228.0568119 9.18897969 228.7168119 9.23022969 229.3968119 9.27272969 C233.13327257 10.36253072 235.50546872 12.2804599 238.5296244 14.67507344 C240.09449125 15.90928851 241.73852605 17.04220579 243.3968119 18.14772969 C243.3968119 18.80772969 243.3968119 19.46772969 243.3968119 20.14772969 C244.0568119 20.14772969 244.7168119 20.14772969 245.3968119 20.14772969 C245.3968119 20.80772969 245.3968119 21.46772969 245.3968119 22.14772969 C246.2321244 22.45710469 246.2321244 22.45710469 247.0843119 22.77272969 C250.39284422 24.73996513 252.1123747 27.03835683 254.3968119 30.14772969 C254.3968119 31.13772969 254.3968119 32.12772969 254.3968119 33.14772969 C255.0568119 33.14772969 255.7168119 33.14772969 256.3968119 33.14772969 C256.3968119 34.13772969 256.3968119 35.12772969 256.3968119 36.14772969 C257.3868119 36.47772969 258.3768119 36.80772969 259.3968119 37.14772969 C261.43789987 40.15564881 261.59559227 42.56968313 261.3968119 46.14772969 C262.0568119 46.14772969 262.7168119 46.14772969 263.3968119 46.14772969 C264.59362269 49.4190125 265.42723021 52.37206471 265.8968119 55.83522969 C266.17679184 59.27735935 266.17679184 59.27735935 268.3968119 62.14772969 C268.62386268 65.05861837 268.62386268 65.05861837 268.5921244 68.56569844 C268.58567909 69.81931173 268.57923378 71.07292501 268.57259315 72.36452657 C268.55583534 73.6748586 268.53907753 74.98519063 268.5218119 76.33522969 C268.51177829 77.67050956 268.5026531 79.00579659 268.49446815 80.34108907 C268.47086483 83.61014984 268.43793785 86.87884997 268.3968119 90.14772969 C266.9118119 90.64272969 266.9118119 90.64272969 265.3968119 91.14772969 C265.4380619 92.15835469 265.4793119 93.16897969 265.5218119 94.21022969 C265.39107347 98.32849022 264.66430404 101.26603503 263.3968119 105.14772969 C262.7368119 105.14772969 262.0768119 105.14772969 261.3968119 105.14772969 C261.2730619 105.86960469 261.1493119 106.59147969 261.0218119 107.33522969 C260.4063188 110.10494864 259.51236816 112.54476509 258.3968119 115.14772969 C257.7368119 115.14772969 257.0768119 115.14772969 256.3968119 115.14772969 C256.0255619 116.47804219 256.0255619 116.47804219 255.6468119 117.83522969 C254.32324293 121.34268748 253.0027583 123.46732769 250.3968119 126.14772969 C248.73289145 126.82122131 247.06649162 127.48864559 245.3968119 128.14772969 C244.71194465 129.47180638 244.04810988 130.8068221 243.3968119 132.14772969 C240.21051543 135.05695691 237.22804338 137.23211396 233.3968119 139.14772969 C232.7368119 140.13772969 232.0768119 141.12772969 231.3968119 142.14772969 C229.2249369 143.24538594 229.2249369 143.24538594 226.6468119 144.21022969 C225.31069862 144.71683126 225.31069862 144.71683126 223.94759315 145.23366719 C221.11176274 146.24987595 218.25450846 147.19516418 215.3968119 148.14772969 C215.0668119 148.47772969 214.7368119 148.80772969 214.3968119 149.14772969 C212.06347857 149.48106303 209.73014524 149.81439636 207.3968119 150.14772969 C207.0668119 150.47772969 206.7368119 150.80772969 206.3968119 151.14772969 C204.59415957 151.24611365 202.78760383 151.27328596 200.98226875 151.27357084 C199.8000233 151.27617858 198.61777785 151.27878633 197.39970678 151.2814731 C196.08427027 151.27924238 194.76883376 151.27701166 193.41353554 151.27471334 C192.01507744 151.2758642 190.61661964 151.27745148 189.21816248 151.27944058 C185.35721079 151.28363875 181.49628362 151.28154103 177.63533181 151.27845436 C173.47850715 151.27620246 169.32168686 151.27967883 165.16486305 151.28243428 C157.01449869 151.28689323 148.86414352 151.28591496 140.71377879 151.28302164 C134.09290938 151.2807681 127.47204255 151.28045488 120.85117286 151.28154546 C119.44053799 151.28177531 119.44053799 151.28177531 118.00140545 151.2820098 C116.09126971 151.28232951 114.18113397 151.28265372 112.27099824 151.28298239 C94.33740013 151.28583755 76.40380711 151.28254961 58.47020984 151.27718203 C43.06471917 151.27271396 27.65923603 151.27348988 12.2537455 151.27810079 C-5.61337031 151.28344592 -23.48048164 151.28556286 -41.34759814 151.28248852 C-43.25091511 151.28216996 -45.15423208 151.28185559 -47.05754906 151.28154546 C-48.46244558 151.28131405 -48.46244558 151.28131405 -49.89572385 151.28107796 C-56.51268547 151.28021262 -63.12964427 151.28167604 -69.74660546 151.28402501 C-77.80466031 151.28682254 -85.86270541 151.28608576 -93.92075914 151.28074427 C-98.03623696 151.27810661 -102.15169849 151.27710327 -106.26717621 151.28039342 C-110.02849303 151.28335507 -113.78977834 151.28176579 -117.55109227 151.27641587 C-119.56942252 151.27475489 -121.58775494 151.27805041 -123.60608298 151.2814731 C-125.37945115 151.27756148 -125.37945115 151.27756148 -127.18864495 151.27357084 C-128.21752469 151.27340848 -129.24640443 151.27324613 -130.30646235 151.27307886 C-132.6031881 151.14772969 -132.6031881 151.14772969 -133.6031881 150.14772969 C-133.86901684 144.91976439 -133.5747195 141.07655821 -131.6031881 136.14772969 C-130.9431881 136.14772969 -130.2831881 136.14772969 -129.6031881 136.14772969 C-129.1081881 134.16772969 -129.1081881 134.16772969 -128.6031881 132.14772969 C-127.9431881 132.14772969 -127.2831881 132.14772969 -126.6031881 132.14772969 C-126.5413131 131.44647969 -126.4794381 130.74522969 -126.4156881 130.02272969 C-125.28644002 126.02692882 -123.50596752 124.11962291 -120.6031881 121.14772969 C-119.6131881 121.14772969 -118.6231881 121.14772969 -117.6031881 121.14772969 C-117.5000631 120.50835469 -117.3969381 119.86897969 -117.2906881 119.21022969 C-117.0638131 118.52960469 -116.8369381 117.84897969 -116.6031881 117.14772969 C-115.1181881 116.65272969 -115.1181881 116.65272969 -113.6031881 116.14772969 C-113.6031881 115.48772969 -113.6031881 114.82772969 -113.6031881 114.14772969 C-112.9431881 114.14772969 -112.2831881 114.14772969 -111.6031881 114.14772969 C-111.6031881 113.48772969 -111.6031881 112.82772969 -111.6031881 112.14772969 C-110.6131881 112.14772969 -109.6231881 112.14772969 -108.6031881 112.14772969 C-108.6031881 111.15772969 -108.6031881 110.16772969 -108.6031881 109.14772969 C-106.85914021 108.13738471 -105.10769249 107.13980547 -103.3531881 106.14772969 C-102.37865685 105.59085469 -101.4041256 105.03397969 -100.4000631 104.46022969 C-97.6031881 103.14772969 -97.6031881 103.14772969 -93.6031881 103.14772969 C-93.1081881 101.66272969 -93.1081881 101.66272969 -92.6031881 100.14772969 C-88.76027431 98.11324593 -84.8700739 97.72211817 -80.6031881 97.14772969 C-80.2731881 96.81772969 -79.9431881 96.48772969 -79.6031881 96.14772969 C-72.23912165 95.06056456 -64.79138602 95.00005601 -57.3631826 95.00296956 C-56.28686532 94.99944272 -55.21054803 94.99591587 -54.10161507 94.99228215 C-50.52457957 94.9816774 -46.94757078 94.97792867 -43.37052208 94.97414571 C-40.79402356 94.96783425 -38.21752612 94.9610678 -35.64102989 94.95388204 C-30.10711753 94.93900727 -24.57320644 94.92743437 -19.03928238 94.91793424 C-11.02743455 94.90400184 -3.01561761 94.88280647 4.99620789 94.85950571 C18.01181538 94.82166478 31.02742842 94.78668091 44.04305214 94.75490743 C44.8207402 94.75300694 45.59842826 94.75110644 46.39968263 94.74914836 C57.44091502 94.72230463 68.48215184 94.69842719 79.5233935 94.67576336 C80.30138476 94.67416606 81.07937601 94.67256876 81.88094276 94.67092305 C82.65797861 94.66932959 83.43501446 94.66773612 84.23559684 94.66609437 C97.20629883 94.63929823 110.17696743 94.60489231 123.14763343 94.5642693 C131.13663572 94.53955151 139.12560219 94.52119301 147.11463659 94.5111137 C153.23758711 94.50282786 159.36046787 94.48431202 165.48338264 94.46205312 C167.98993536 94.45458975 170.49650078 94.45049729 173.00306457 94.4500578 C176.43007081 94.44897186 179.85682675 94.43569332 183.28379005 94.41947347 C184.76382156 94.42339875 184.76382156 94.42339875 186.27375269 94.42740333 C195.52421758 94.41288888 195.52421758 94.41288888 204.3968119 92.14772969 C205.58102747 90.20670301 205.58102747 90.20670301 206.3968119 88.14772969 C207.0774369 87.61147969 207.7580619 87.07522969 208.4593119 86.52272969 C212.57814262 81.47384043 211.53334647 73.42831976 211.3968119 67.14772969 C210.4068119 66.81772969 209.4168119 66.48772969 208.3968119 66.14772969 C207.9430619 65.36397969 207.4893119 64.58022969 207.0218119 63.77272969 C204.07764856 59.01677353 200.01899744 57.83548265 194.73442203 56.56482309 C190.41470968 55.7940686 186.09919572 55.86420469 181.7227549 55.87598592 C180.67123566 55.87089908 179.61971642 55.86581225 178.53633296 55.86057127 C175.02567705 55.8459501 171.5151621 55.84537778 168.00447792 55.84475118 C165.48278224 55.83708754 162.96108912 55.8285407 160.43939918 55.81917745 C155.01672186 55.80091929 149.59408307 55.78861555 144.17138046 55.78163892 C136.33007556 55.77145308 128.48883839 55.74938063 120.64756875 55.72425301 C107.9228027 55.68370456 95.19803017 55.65122003 82.47322792 55.62453634 C81.71241686 55.62293903 80.9516058 55.62134173 80.16773986 55.61969603 C79.40594055 55.61809713 78.64414124 55.61649823 77.8592571 55.61485088 C67.04209872 55.59213022 56.22494695 55.56749784 45.40779823 55.54055196 C44.64579455 55.53865582 43.88379088 55.53675967 43.09869618 55.53480607 C30.41177889 55.50307332 17.72487474 55.46733212 5.03797424 55.42951047 C-2.78885691 55.40643704 -10.61567906 55.38749502 -18.44253243 55.37384374 C-24.42758678 55.36322471 -30.41261833 55.34781907 -36.39765793 55.33065206 C-38.85961588 55.32447003 -41.32157886 55.32002569 -43.78354317 55.31739408 C-47.12839753 55.31361272 -50.47318063 55.30382629 -53.81801659 55.29248983 C-54.80572955 55.29287596 -55.79344252 55.29326209 -56.81108618 55.29365993 C-57.6998929 55.28941888 -58.58869963 55.28517783 -59.50443989 55.28080827 C-60.27739083 55.27923437 -61.05034176 55.27766048 -61.84671545 55.27603889 C-63.6031881 55.14772969 -63.6031881 55.14772969 -64.6031881 54.14772969 C-64.64382642 52.48155854 -64.6459091 50.81384875 -64.6031881 49.14772969 C-63.6131881 49.14772969 -62.6231881 49.14772969 -61.6031881 49.14772969 C-61.6031881 47.16772969 -61.6031881 45.18772969 -61.6031881 43.14772969 C-60.9431881 43.14772969 -60.2831881 43.14772969 -59.6031881 43.14772969 C-59.5000631 42.63210469 -59.3969381 42.11647969 -59.2906881 41.58522969 C-57.59027258 35.55648376 -55.43200754 31.23365384 -50.6031881 27.14772969 C-49.9431881 27.14772969 -49.2831881 27.14772969 -48.6031881 27.14772969 C-48.4175631 26.25054219 -48.4175631 26.25054219 -48.2281881 25.33522969 C-47.6031881 23.14772969 -47.6031881 23.14772969 -45.6031881 20.14772969 C-44.6131881 19.83835469 -43.6231881 19.52897969 -42.6031881 19.21022969 C-41.6131881 18.85960469 -40.6231881 18.50897969 -39.6031881 18.14772969 C-39.31959435 17.53929219 -39.0360006 16.93085469 -38.7438131 16.30397969 C-35.2951635 9.7846147 -24.35313639 5.61510076 -17.7281881 3.02272969 C-15.17223816 2.30706371 -12.90845284 1.88853577 -10.2906881 1.58522969 C-6.47219555 1.13218821 -4.01630804 0.02450586 0 0 Z " fill="#010101" transform="translate(476.60318809747696,387.8522703051567)"/>
<path d="M0 0 C1.13397661 -0.00260775 2.26795323 -0.00521549 3.43629277 -0.00790226 C5.31316267 -0.00455618 5.31316267 -0.00455618 7.22794914 -0.0011425 C8.56626137 -0.00229411 9.90457327 -0.00388191 11.24288452 -0.00586975 C14.92829431 -0.01005745 18.61367833 -0.00797489 22.29908824 -0.00488353 C26.27046369 -0.00262744 30.2418346 -0.00611006 34.21320915 -0.00886345 C41.99566319 -0.01331763 49.77810761 -0.0123463 57.56056203 -0.00945081 C63.88247055 -0.00719573 70.20437636 -0.00688471 76.52628517 -0.00797462 C77.87406795 -0.00820447 77.87406795 -0.00820447 79.24907865 -0.00843897 C81.07417632 -0.00875868 82.89927399 -0.00908289 84.72437166 -0.00941156 C101.85059885 -0.01226524 118.97682069 -0.00898091 136.103047 -0.00361119 C150.81378162 0.00085827 165.52450836 0.00007953 180.23524284 -0.00452995 C197.30178548 -0.00987507 214.36832343 -0.01199216 231.43486679 -0.00891769 C233.25277448 -0.00859912 235.07068217 -0.00828475 236.88858986 -0.00797462 C238.23040894 -0.00774321 238.23040894 -0.00774321 239.59933547 -0.00750712 C245.91826094 -0.00664189 252.23718346 -0.00810494 258.55610847 -0.01045418 C266.24996689 -0.01325161 273.94381509 -0.01251506 281.63767232 -0.00717343 C285.56683978 -0.00453588 289.49599019 -0.00353228 293.42515755 -0.00682259 C297.0161562 -0.00978436 300.60712186 -0.00819475 304.19811748 -0.00284503 C306.12489086 -0.0011842 308.05166649 -0.00447942 309.97843754 -0.00790226 C311.10719866 -0.00529452 312.23595978 -0.00268677 313.39892578 0 C314.38115494 0.00016235 315.3633841 0.0003247 316.37537777 0.00049198 C318.57362175 0.12584114 318.57362175 0.12584114 319.57362175 1.12584114 C319.64567686 2.8119308 319.65748243 4.50084773 319.63612175 6.18834114 C319.62709831 7.1074427 319.61807487 8.02654427 319.608778 8.97349739 C319.59137566 10.03890755 319.59137566 10.03890755 319.57362175 11.12584114 C318.91362175 11.12584114 318.25362175 11.12584114 317.57362175 11.12584114 C317.44987175 11.86834114 317.32612175 12.61084114 317.19862175 13.37584114 C316.61875474 15.92725599 315.83653436 17.85259844 314.57362175 20.12584114 C313.91362175 20.12584114 313.25362175 20.12584114 312.57362175 20.12584114 C312.57362175 21.11584114 312.57362175 22.10584114 312.57362175 23.12584114 C311.91362175 23.12584114 311.25362175 23.12584114 310.57362175 23.12584114 C310.47307487 23.70591927 310.372528 24.28599739 310.26893425 24.88365364 C308.17539778 31.63472068 300.88109804 36.79345933 295.57362175 41.12584114 C294.11955925 42.42521614 294.11955925 42.42521614 292.63612175 43.75084114 C287.36159813 47.84128803 281.86763229 50.02783763 275.57362175 52.12584114 C274.42893425 52.89927864 274.42893425 52.89927864 273.26112175 53.68834114 C269.95645731 55.45595235 267.16319397 55.65769208 263.46424675 55.91490364 C261.56356771 55.92778156 261.56356771 55.92778156 260.57362175 57.12584114 C257.74195808 57.36818908 254.9331381 57.54797013 252.09570122 57.68025398 C250.80833798 57.74344505 250.80833798 57.74344505 249.4949674 57.80791271 C241.06801486 58.19469154 232.65460734 58.26732343 224.22035027 58.25523567 C222.58499424 58.25659626 220.94963853 58.25837983 219.31428337 58.26054573 C214.93609824 58.2650424 210.5579371 58.26336294 206.17975163 58.26016665 C201.55672287 58.25760189 196.9336959 58.25999192 192.31066704 58.26155281 C184.55187938 58.26336283 176.7931013 58.26099923 169.03431511 58.25621223 C160.11782836 58.25077381 151.20136451 58.25253397 142.28487831 58.25803864 C134.57299181 58.26260555 126.86111212 58.26320289 119.1492247 58.26059997 C114.56801062 58.2590565 109.98680723 58.2587895 105.40559387 58.26213646 C68.98389055 58.28523581 68.98389055 58.28523581 52.57362175 57.12584114 C52.57362175 56.46584114 52.57362175 55.80584114 52.57362175 55.12584114 C51.59522331 55.17804817 51.59522331 55.17804817 50.59705925 55.23130989 C44.96481254 55.40576001 41.52954969 55.01679911 36.57362175 52.12584114 C34.01151465 51.0727546 31.43035857 50.08026121 28.843153 49.09068489 C26.57362175 48.12584114 26.57362175 48.12584114 23.57362175 46.12584114 C23.57362175 45.46584114 23.57362175 44.80584114 23.57362175 44.12584114 C22.45987175 44.03302864 22.45987175 44.03302864 21.32362175 43.93834114 C17.72024575 42.87370732 16.81890915 41.07278085 14.57362175 38.12584114 C13.66612175 37.58959114 12.75862175 37.05334114 11.82362175 36.50084114 C11.08112175 36.04709114 10.33862175 35.59334114 9.57362175 35.12584114 C9.57362175 34.13584114 9.57362175 33.14584114 9.57362175 32.12584114 C8.91362175 32.12584114 8.25362175 32.12584114 7.57362175 32.12584114 C7.57362175 31.46584114 7.57362175 30.80584114 7.57362175 30.12584114 C6.91362175 30.12584114 6.25362175 30.12584114 5.57362175 30.12584114 C5.57362175 29.46584114 5.57362175 28.80584114 5.57362175 28.12584114 C4.58362175 28.12584114 3.59362175 28.12584114 2.57362175 28.12584114 C2.57362175 26.47584114 2.57362175 24.82584114 2.57362175 23.12584114 C1.91362175 23.12584114 1.25362175 23.12584114 0.57362175 23.12584114 C-3.42637825 16.62584114 -3.42637825 16.62584114 -3.42637825 12.12584114 C-4.41637825 12.12584114 -5.40637825 12.12584114 -6.42637825 12.12584114 C-8.22867993 8.29595008 -8.62260067 5.34462306 -8.42637825 1.12584114 C-5.33870052 0.09661523 -3.23539018 0.0005346 0 0 Z " fill="#010101" transform="translate(456.42637825012207,577.8741588592529)"/>
<path d="M0 0 C1.13397661 -0.00260775 2.26795323 -0.00521549 3.43629277 -0.00790226 C5.31316267 -0.00455618 5.31316267 -0.00455618 7.22794914 -0.0011425 C8.56626137 -0.00229411 9.90457327 -0.00388191 11.24288452 -0.00586975 C14.92829431 -0.01005745 18.61367833 -0.00797489 22.29908824 -0.00488353 C26.27046369 -0.00262744 30.2418346 -0.00611006 34.21320915 -0.00886345 C41.99566319 -0.01331763 49.77810761 -0.0123463 57.56056203 -0.00945081 C63.88247055 -0.00719573 70.20437636 -0.00688471 76.52628517 -0.00797462 C77.87406795 -0.00820447 77.87406795 -0.00820447 79.24907865 -0.00843897 C81.07417632 -0.00875868 82.89927399 -0.00908289 84.72437166 -0.00941156 C101.85059885 -0.01226524 118.97682069 -0.00898091 136.103047 -0.00361119 C150.81378162 0.00085827 165.52450836 0.00007953 180.23524284 -0.00452995 C197.30178548 -0.00987507 214.36832343 -0.01199216 231.43486679 -0.00891769 C233.25277448 -0.00859912 235.07068217 -0.00828475 236.88858986 -0.00797462 C238.23040894 -0.00774321 238.23040894 -0.00774321 239.59933547 -0.00750712 C245.91826094 -0.00664189 252.23718346 -0.00810494 258.55610847 -0.01045418 C266.24996689 -0.01325161 273.94381509 -0.01251506 281.63767232 -0.00717343 C285.56683978 -0.00453588 289.49599019 -0.00353228 293.42515755 -0.00682259 C297.0161562 -0.00978436 300.60712186 -0.00819475 304.19811748 -0.00284503 C306.12489086 -0.0011842 308.05166649 -0.00447942 309.97843754 -0.00790226 C311.10719866 -0.00529452 312.23595978 -0.00268677 313.39892578 0 C314.38115494 0.00016235 315.3633841 0.0003247 316.37537777 0.00049198 C318.57362175 0.12584114 318.57362175 0.12584114 319.57362175 1.12584114 C319.64567686 2.8119308 319.65748243 4.50084773 319.63612175 6.18834114 C319.62709831 7.1074427 319.61807487 8.02654427 319.608778 8.97349739 C319.59137566 10.03890755 319.59137566 10.03890755 319.57362175 11.12584114 C318.91362175 11.12584114 318.25362175 11.12584114 317.57362175 11.12584114 C317.44987175 11.86834114 317.32612175 12.61084114 317.19862175 13.37584114 C316.61875474 15.92725599 315.83653436 17.85259844 314.57362175 20.12584114 C313.91362175 20.12584114 313.25362175 20.12584114 312.57362175 20.12584114 C312.57362175 21.11584114 312.57362175 22.10584114 312.57362175 23.12584114 C311.91362175 23.12584114 311.25362175 23.12584114 310.57362175 23.12584114 C310.47307487 23.70591927 310.372528 24.28599739 310.26893425 24.88365364 C308.18195456 31.61357691 300.84259724 36.82463666 295.57362175 41.12584114 C294.91362175 40.79584114 294.25362175 40.46584114 293.57362175 40.12584114 C294.94862175 38.12584114 294.94862175 38.12584114 296.57362175 36.12584114 C297.23362175 36.12584114 297.89362175 36.12584114 298.57362175 36.12584114 C298.57362175 35.13584114 298.57362175 34.14584114 298.57362175 33.12584114 C299.56362175 33.12584114 300.55362175 33.12584114 301.57362175 33.12584114 C301.90362175 31.80584114 302.23362175 30.48584114 302.57362175 29.12584114 C303.23362175 29.12584114 303.89362175 29.12584114 304.57362175 29.12584114 C304.67674675 28.48646614 304.77987175 27.84709114 304.88612175 27.18834114 C305.22643425 26.16740364 305.22643425 26.16740364 305.57362175 25.12584114 C306.56362175 24.79584114 307.55362175 24.46584114 308.57362175 24.12584114 C309.30685971 22.11075756 309.30685971 22.11075756 309.57362175 20.12584114 C310.23362175 20.12584114 310.89362175 20.12584114 311.57362175 20.12584114 C311.69608269 19.58443489 311.81854362 19.04302864 311.9447155 18.48521614 C312.68367057 15.71298717 313.64288329 13.06719697 314.63612175 10.37584114 C314.99834831 9.39099739 315.36057487 8.40615364 315.733778 7.39146614 C316.01092644 6.64380989 316.28807487 5.89615364 316.57362175 5.12584114 C301.13633973 4.93762312 285.69882859 4.77504394 270.26112175 4.62584114 C269.03337784 4.61396389 267.80563393 4.60208664 266.54068565 4.58984947 C207.5941685 4.02848202 148.64732458 4.04120027 89.69862175 4.06334114 C88.53601688 4.06376537 87.37341201 4.06418961 86.17557669 4.06462669 C55.97491737 4.07583134 25.77426844 4.09614446 -4.42637825 4.12584114 C-4.42637825 5.44584114 -4.42637825 6.76584114 -4.42637825 8.12584114 C-3.76637825 8.45584114 -3.10637825 8.78584114 -2.42637825 9.12584114 C-1.35606575 11.08677864 -1.35606575 11.08677864 -0.30137825 13.50084114 C0.05182487 14.29232552 0.405028 15.08380989 0.76893425 15.89927864 C1.57362175 18.12584114 1.57362175 18.12584114 1.57362175 21.12584114 C2.17174675 21.37334114 2.76987175 21.62084114 3.38612175 21.87584114 C5.95025942 23.34106267 7.05788497 24.59961317 8.57362175 27.12584114 C9.26112175 29.87584114 9.26112175 29.87584114 9.57362175 32.12584114 C8.91362175 32.12584114 8.25362175 32.12584114 7.57362175 32.12584114 C7.57362175 31.46584114 7.57362175 30.80584114 7.57362175 30.12584114 C6.91362175 30.12584114 6.25362175 30.12584114 5.57362175 30.12584114 C5.57362175 29.46584114 5.57362175 28.80584114 5.57362175 28.12584114 C4.58362175 28.12584114 3.59362175 28.12584114 2.57362175 28.12584114 C2.57362175 26.47584114 2.57362175 24.82584114 2.57362175 23.12584114 C1.91362175 23.12584114 1.25362175 23.12584114 0.57362175 23.12584114 C-3.42637825 16.62584114 -3.42637825 16.62584114 -3.42637825 12.12584114 C-4.41637825 12.12584114 -5.40637825 12.12584114 -6.42637825 12.12584114 C-8.22867993 8.29595008 -8.62260067 5.34462306 -8.42637825 1.12584114 C-5.33870052 0.09661523 -3.23539018 0.0005346 0 0 Z " fill="#D7D7D7" transform="translate(456.42637825012207,577.8741588592529)"/>
<path d="M0 0 C7.10701328 0.54339337 13.24292825 1.74764275 20 4 C22.79704303 4.09824794 25.56913235 4.13904841 28.36631775 4.13371277 C29.23021089 4.13597833 30.09410402 4.13824388 30.98417574 4.14057809 C33.89042422 4.14692801 36.79662619 4.14608807 39.70288086 4.14526367 C41.78234925 4.1482547 43.86181708 4.1516571 45.94128418 4.15544128 C51.60082564 4.16429504 57.26035199 4.16662008 62.9198997 4.16725707 C67.64601507 4.16820588 72.3721269 4.17188418 77.09824091 4.17542917 C88.2556813 4.1835803 99.41311362 4.18601295 110.57055664 4.18530273 C122.06804173 4.18470297 133.56547975 4.19523304 145.06295294 4.2110464 C154.93828074 4.2241432 164.8135932 4.22948567 174.68892962 4.22884732 C180.5847044 4.2285928 186.48043743 4.23141825 192.37620354 4.24202538 C197.92885532 4.25174138 203.48142578 4.25176155 209.03408051 4.24450874 C211.06570365 4.24346698 213.09733195 4.24580138 215.1289463 4.2518692 C229.10198297 4.305596 229.10198297 4.305596 242.91330814 2.3313036 C245 2 245 2 247 3 C242.60204498 6.4958104 239.45932068 7.49568472 233.85546875 7.82421875 C231.98499658 7.80258197 231.98499658 7.80258197 231 9 C228.16833633 9.24234794 225.35951635 9.42212899 222.52207947 9.55441284 C221.66383731 9.59654022 220.80559515 9.6386676 219.92134565 9.68207157 C211.49439311 10.06885039 203.08098559 10.14148229 194.64672852 10.12939453 C193.01137249 10.13075512 191.37601678 10.13253869 189.74066162 10.13470459 C185.36247649 10.13920126 180.98431535 10.1375218 176.60612988 10.1343255 C171.98310112 10.13176075 167.36007415 10.13415078 162.73704529 10.13571167 C154.97825763 10.13752169 147.21947955 10.13515809 139.46069336 10.13037109 C130.54420661 10.12493267 121.62774276 10.12669283 112.71125656 10.1321975 C104.99937006 10.13676441 97.28749037 10.13736174 89.57560295 10.13475883 C84.99438887 10.13321536 80.41318548 10.13294836 75.83197212 10.13629532 C39.4102688 10.15939467 39.4102688 10.15939467 23 9 C23 8.34 23 7.68 23 7 C22.34773438 7.03480469 21.69546875 7.06960938 21.0234375 7.10546875 C15.43354065 7.27860715 11.90148282 6.94088969 7 4 C5.71628469 3.41958289 4.42430691 2.85711966 3.125 2.3125 C2.09375 1.879375 1.0625 1.44625 0 1 C0 0.67 0 0.34 0 0 Z " fill="#454545" transform="translate(486,626)"/>
<path d="M0 0 C-1.485 0.495 -1.485 0.495 -3 1 C-3 1.66 -3 2.32 -3 3 C-5.37765682 4.18882841 -6.80961012 4.12427729 -9.46278572 4.12304783 C-10.40728462 4.12503888 -11.35178353 4.12702993 -12.32490361 4.12908131 C-13.36963396 4.12616847 -14.41436432 4.12325563 -15.49075317 4.12025452 C-17.14715515 4.12153615 -17.14715515 4.12153615 -18.8370198 4.12284368 C-22.56209837 4.12449961 -26.28713257 4.11897525 -30.01220703 4.11352539 C-32.67256777 4.11324352 -35.33292573 4.11335715 -37.99328613 4.1139679 C-43.73364858 4.11449302 -49.47399969 4.11134739 -55.21435928 4.10573006 C-63.5140222 4.09761354 -71.81367963 4.09499968 -80.11334608 4.09374207 C-93.57800857 4.09155179 -107.04266501 4.08489234 -120.50732422 4.07543945 C-133.58935516 4.06626472 -146.67138446 4.05918418 -159.75341797 4.05493164 C-160.55938133 4.05466892 -161.36534469 4.05440619 -162.19573118 4.05413551 C-166.23888914 4.0528305 -170.28204711 4.05156679 -174.32520509 4.05032361 C-207.88347444 4.03995174 -241.44173648 4.02233407 -275 4 C-275 4.66 -275 5.32 -275 6 C-278.38856466 7.69428233 -282.21510111 7.40262081 -285.95703125 7.62109375 C-288.97126744 7.99642226 -291.21783948 8.83328753 -294 10 C-294.99 10 -295.98 10 -297 10 C-296 7 -296 7 -293.875 5.875 C-290.6034403 4.87930792 -287.38434995 4.45558557 -284 4 C-283.67 3.67 -283.34 3.34 -283 3 C-275.62933973 1.91149507 -268.17467076 1.85232975 -260.73980713 1.85523987 C-259.66137315 1.85171302 -258.58293916 1.84818618 -257.47182536 1.84455246 C-253.88778794 1.83394763 -250.30377717 1.830199 -246.71972656 1.82641602 C-244.13836049 1.82010467 -241.5569955 1.81333823 -238.97563171 1.80615234 C-233.43189078 1.79127855 -227.88815111 1.77970545 -222.3443985 1.77020454 C-214.3216053 1.75627626 -206.29884298 1.73508209 -198.27607211 1.71177601 C-185.2470436 1.67393854 -172.21800956 1.63895173 -159.18896484 1.60717773 C-158.41048985 1.60527724 -157.63201485 1.60337675 -156.82994971 1.60141867 C-145.77071805 1.57455902 -134.71148194 1.5506853 -123.65224096 1.52803367 C-122.8725532 1.52643637 -122.09286544 1.52483906 -121.28955078 1.52319336 C-120.1214527 1.52080316 -120.1214527 1.52080316 -118.92975667 1.51836468 C-105.94211891 1.4915915 -92.95451466 1.45719658 -79.96691298 1.41653961 C-71.9640827 1.39179175 -63.96128838 1.37344998 -55.95842591 1.363384 C-49.83028401 1.35511513 -43.70221226 1.33661589 -37.57410622 1.31432343 C-35.06145573 1.30684436 -32.54879249 1.30276665 -30.03613091 1.30232811 C-26.60807442 1.30124656 -23.18027149 1.28800738 -19.7522583 1.27174377 C-18.75683211 1.27436063 -17.76140591 1.27697748 -16.73581529 1.27967364 C-12.23833931 1.24631208 -3.53380045 -1.76690022 0 0 Z " fill="#A2A2A2" transform="translate(680,481)"/>
<path d="M0 0 C0.54140625 0.22558594 1.0828125 0.45117188 1.640625 0.68359375 C0.980625 1.34359375 0.320625 2.00359375 -0.359375 2.68359375 C-1.349375 2.68359375 -2.339375 2.68359375 -3.359375 2.68359375 C-3.689375 3.67359375 -4.019375 4.66359375 -4.359375 5.68359375 C-7.359375 7.68359375 -7.359375 7.68359375 -10.359375 7.68359375 C-10.359375 8.67359375 -10.359375 9.66359375 -10.359375 10.68359375 C-12.0390625 12.4375 -12.0390625 12.4375 -14.234375 14.24609375 C-14.95367187 14.84550781 -15.67296875 15.44492187 -16.4140625 16.0625 C-17.37699219 16.86494141 -17.37699219 16.86494141 -18.359375 17.68359375 C-19.019375 18.34359375 -19.679375 19.00359375 -20.359375 19.68359375 C-21.349375 19.68359375 -22.339375 19.68359375 -23.359375 19.68359375 C-24.019375 21.66359375 -24.679375 23.64359375 -25.359375 25.68359375 C-26.349375 25.68359375 -27.339375 25.68359375 -28.359375 25.68359375 C-28.6996875 26.82828125 -28.6996875 26.82828125 -29.046875 27.99609375 C-30.53659884 32.18150834 -32.39991943 36.1025207 -34.3359375 40.09765625 C-35.6047069 42.83996211 -35.6047069 42.83996211 -35.359375 46.68359375 C5.83123159 46.60186456 47.02180276 46.50971377 88.21235393 46.40354214 C93.07280282 46.39102293 97.93325192 46.37859021 102.79370117 46.36621094 C104.24517262 46.36251195 104.24517262 46.36251195 105.72596673 46.35873823 C121.40390613 46.31899026 137.08185276 46.28625195 152.75981321 46.25609393 C168.84106558 46.22500451 184.92228722 46.18640589 201.00350505 46.14080369 C210.93032314 46.11289146 220.85711868 46.09087029 230.78396551 46.07633124 C237.58671263 46.06580731 244.38941616 46.04800422 251.19213047 46.02442671 C255.11975407 46.0110305 259.04731646 46.00089197 262.97496414 45.99938011 C266.56942814 45.9979258 270.16374461 45.98734914 273.75816331 45.96945934 C275.67713867 45.96229774 277.59614286 45.96495001 279.51512927 45.96792948 C280.65370468 45.96046399 281.79228009 45.9529985 282.96535778 45.94530678 C283.94769427 45.94302846 284.93003077 45.94075013 285.94213504 45.93840277 C288.84283269 45.66449998 290.98636362 44.84983204 293.640625 43.68359375 C295.8605957 43.36474609 295.8605957 43.36474609 298.06640625 43.26953125 C298.86240234 43.23085938 299.65839844 43.1921875 300.47851562 43.15234375 C301.29513672 43.12140625 302.11175781 43.09046875 302.953125 43.05859375 C303.78908203 43.01992188 304.62503906 42.98125 305.48632812 42.94140625 C307.53741759 42.84764216 309.58899015 42.7645513 311.640625 42.68359375 C310.980625 43.67359375 310.320625 44.66359375 309.640625 45.68359375 C307.31905903 46.09088603 304.9837463 46.42798052 302.640625 46.68359375 C302.310625 47.01359375 301.980625 47.34359375 301.640625 47.68359375 C299.83797267 47.78197771 298.03141693 47.80915002 296.22608185 47.80943489 C295.0438364 47.81204264 293.86159095 47.81465039 292.64351988 47.81733716 C290.67036511 47.81399107 290.67036511 47.81399107 288.65734863 47.81057739 C287.25889053 47.81172825 285.86043273 47.81331554 284.46197557 47.81530464 C280.60102389 47.81950281 276.74009672 47.81740508 272.87914491 47.81431842 C268.72232024 47.81206651 264.56549996 47.81554288 260.40867615 47.81829834 C252.25831179 47.82275728 244.10795662 47.82177902 235.95759189 47.8188857 C229.33672248 47.81663215 222.71585565 47.81631893 216.09498596 47.81740952 C214.68435109 47.81763936 214.68435109 47.81763936 213.24521855 47.81787386 C211.33508281 47.81819357 209.42494707 47.81851778 207.51481134 47.81884645 C189.58121322 47.82170161 171.64762021 47.81841366 153.71402293 47.81304608 C138.30853226 47.80857801 122.90304913 47.80935393 107.49755859 47.81396484 C89.63044279 47.81930998 71.76333146 47.82142691 53.89621496 47.81835258 C51.99289799 47.81803401 50.08958101 47.81771964 48.18626404 47.81740952 C46.78136752 47.8171781 46.78136752 47.8171781 45.34808925 47.81694201 C38.73112762 47.81607668 32.11416883 47.81754009 25.49720764 47.81988907 C17.43915279 47.8226866 9.38110768 47.82194981 1.32305396 47.81660832 C-2.79242386 47.81397066 -6.9078854 47.81296733 -11.02336311 47.81625748 C-14.78467993 47.81921913 -18.54596524 47.81762984 -22.30727917 47.81227992 C-24.32560943 47.81061894 -26.34394184 47.81391447 -28.36226988 47.81733716 C-30.13563805 47.81342553 -30.13563805 47.81342553 -31.94483185 47.80943489 C-32.97371159 47.80927254 -34.00259133 47.80911019 -35.06264925 47.80894291 C-37.359375 47.68359375 -37.359375 47.68359375 -38.359375 46.68359375 C-38.62520374 41.45562845 -38.33090641 37.61242227 -36.359375 32.68359375 C-35.699375 32.68359375 -35.039375 32.68359375 -34.359375 32.68359375 C-34.029375 31.36359375 -33.699375 30.04359375 -33.359375 28.68359375 C-32.699375 28.68359375 -32.039375 28.68359375 -31.359375 28.68359375 C-31.2975 27.98234375 -31.235625 27.28109375 -31.171875 26.55859375 C-30.04262693 22.56279288 -28.26215442 20.65548697 -25.359375 17.68359375 C-24.369375 17.68359375 -23.379375 17.68359375 -22.359375 17.68359375 C-22.25625 17.04421875 -22.153125 16.40484375 -22.046875 15.74609375 C-21.7065625 14.72515625 -21.7065625 14.72515625 -21.359375 13.68359375 C-20.369375 13.35359375 -19.379375 13.02359375 -18.359375 12.68359375 C-18.359375 12.02359375 -18.359375 11.36359375 -18.359375 10.68359375 C-17.699375 10.68359375 -17.039375 10.68359375 -16.359375 10.68359375 C-16.359375 10.02359375 -16.359375 9.36359375 -16.359375 8.68359375 C-15.369375 8.68359375 -14.379375 8.68359375 -13.359375 8.68359375 C-13.359375 7.69359375 -13.359375 6.70359375 -13.359375 5.68359375 C-11.61814951 4.64786479 -9.86600905 3.63046855 -8.109375 2.62109375 C-7.13484375 2.05261719 -6.1603125 1.48414063 -5.15625 0.8984375 C-2.359375 -0.31640625 -2.359375 -0.31640625 0 0 Z " fill="#3B3B3B" transform="translate(381.359375,491.31640625)"/>
<path d="M0 0 C0.66 0 1.32 0 2 0 C2 2.97 2 5.94 2 9 C87.47 9.33 172.94 9.66 261 10 C261.33 10.99 261.66 11.98 262 13 C262.99 13 263.98 13 265 13 C265 13.66 265 14.32 265 15 C265.66 15 266.32 15 267 15 C266.67 15.66 266.34 16.32 266 17 C265.505 16.71125 265.01 16.4225 264.5 16.125 C257.53870713 12.99241821 250.83221005 12.70804961 243.32594299 12.72825623 C242.27442376 12.72316939 241.22290452 12.71808255 240.13952106 12.71284157 C236.62886515 12.69822041 233.11835019 12.69764809 229.60766602 12.69702148 C227.08597034 12.68935784 224.56427722 12.680811 222.04258728 12.67144775 C216.61990995 12.65318959 211.19727116 12.64088585 205.77456856 12.63390923 C197.93326366 12.62372338 190.09202648 12.60165094 182.25075685 12.57652331 C169.5259908 12.53597487 156.80121827 12.50349033 144.07641602 12.47680664 C143.31560496 12.47520934 142.5547939 12.47361204 141.77092796 12.47196633 C141.00912865 12.47036743 140.24732934 12.46876853 139.4624452 12.46712118 C128.64528682 12.44440053 117.82813505 12.41976814 107.01098633 12.39282227 C106.24898265 12.39092612 105.48697897 12.38902997 104.70188428 12.38707637 C92.01496699 12.35534363 79.32806284 12.31960242 66.64116234 12.28178078 C58.81433119 12.25870735 50.98750904 12.23976533 43.16065567 12.22611404 C37.17560131 12.21549502 31.19056977 12.20008938 25.20553017 12.18292236 C22.74357222 12.17674034 20.28160923 12.17229599 17.81964493 12.16966438 C14.47479057 12.16588302 11.13000747 12.1560966 7.78517151 12.14476013 C6.79745854 12.14514626 5.80974558 12.1455324 4.79210192 12.14593023 C3.90329519 12.14168918 3.01448847 12.13744814 2.09874821 12.13307858 C1.32579727 12.13150468 0.55284634 12.12993078 -0.24352735 12.12830919 C-2 12 -2 12 -3 11 C-3.04063832 9.33382885 -3.042721 7.66611905 -3 6 C-2.01 6 -1.02 6 0 6 C0 4.02 0 2.04 0 0 Z " fill="#363636" transform="translate(415,431)"/>
<path d="M0 0 C41.13126791 -0.02286469 82.26253499 -0.04049737 123.39380797 -0.05106533 C128.24439087 -0.05231611 133.09497376 -0.05361042 137.94555664 -0.05493164 C138.9112629 -0.05519395 139.87696916 -0.05545626 140.87193925 -0.05572652 C156.52995944 -0.06008358 172.18797597 -0.06797132 187.84599399 -0.0771528 C203.90008476 -0.08648835 219.95417361 -0.0920554 236.00826699 -0.09408849 C245.92281947 -0.09546393 255.83736163 -0.09981561 265.75191093 -0.10791647 C272.54105551 -0.11318271 279.33019471 -0.11480457 286.11934119 -0.11350138 C290.04241337 -0.11285781 293.96546745 -0.11387765 297.88853645 -0.11920547 C302.13150847 -0.12492602 306.37444142 -0.12300129 310.61741638 -0.12025452 C311.87127984 -0.12316736 313.1251433 -0.1260802 314.41700262 -0.12908131 C316.10769435 -0.12609474 316.10769435 -0.12609474 317.83254147 -0.12304783 C318.81335908 -0.12342755 319.79417669 -0.12380727 320.80471605 -0.1241985 C323 0 323 0 324 1 C324.14115161 3.67058851 324.04247107 6.32432238 324 9 C323.34 9 322.68 9 322 9 C321.87625 9.7425 321.7525 10.485 321.625 11.25 C321.04513299 13.80141485 320.26291261 15.7267573 319 18 C318.34 18 317.68 18 317 18 C317 18.99 317 19.98 317 21 C316.34 21 315.68 21 315 21 C314.89945313 21.58007812 314.79890625 22.16015625 314.6953125 22.7578125 C312.60833281 29.48773577 305.26897549 34.69879552 300 39 C299.34 38.67 298.68 38.34 298 38 C299.375 36 299.375 36 301 34 C301.66 34 302.32 34 303 34 C303 33.01 303 32.02 303 31 C303.99 31 304.98 31 306 31 C306.33 29.68 306.66 28.36 307 27 C307.66 27 308.32 27 309 27 C309.103125 26.360625 309.20625 25.72125 309.3125 25.0625 C309.6528125 24.0415625 309.6528125 24.0415625 310 23 C310.99 22.67 311.98 22.34 313 22 C313.73323796 19.98491642 313.73323796 19.98491642 314 18 C314.66 18 315.32 18 316 18 C316.12246094 17.45859375 316.24492188 16.9171875 316.37109375 16.359375 C317.11004882 13.58714603 318.06926154 10.94135583 319.0625 8.25 C319.42472656 7.26515625 319.78695313 6.2803125 320.16015625 5.265625 C320.43730469 4.51796875 320.71445312 3.7703125 321 3 C305.56258267 2.84514242 290.12507229 2.70102069 274.6875 2.5625 C273.45975609 2.55147877 272.23201218 2.54045753 270.9670639 2.52910233 C212.02065197 2.00367099 153.07299866 1.71861353 94.125 1.4375 C92.96239513 1.43195052 91.79979026 1.42640103 90.60195494 1.42068338 C60.40132092 1.27660338 30.20066994 1.13633719 0 1 C0 0.67 0 0.34 0 0 Z " fill="#787878" transform="translate(452,580)"/>
<path d="M0 0 C3.3125 0.625 3.3125 0.625 7 2 C9.9558826 6.51443888 10.33820774 10.04999312 10.1875 15.375 C10.16042969 16.62023437 10.13335938 17.86546875 10.10546875 19.1484375 C10.05326172 20.55996094 10.05326172 20.55996094 10 22 C9.34 22.33 8.68 22.66 8 23 C7.896875 23.928125 7.79375 24.85625 7.6875 25.8125 C7 29 7 29 4.8125 31.25 C1.92448936 33.0469844 -0.73249402 34.08813787 -4 35 C-4 35.66 -4 36.32 -4 37 C-6.38139227 38.19069614 -7.82069763 38.12427484 -10.47840309 38.12304783 C-11.90037654 38.1260344 -11.90037654 38.1260344 -13.35107672 38.12908131 C-14.39969803 38.12616847 -15.44831933 38.12325563 -16.52871704 38.12025452 C-17.63706858 38.12110894 -18.74542012 38.12196337 -19.88735807 38.12284368 C-23.62625611 38.12449962 -27.36510995 38.11897523 -31.10400391 38.11352539 C-33.77421673 38.11324352 -36.44442679 38.11335715 -39.11463928 38.1139679 C-44.87628264 38.11449303 -50.63791469 38.11134737 -56.39955521 38.10573006 C-64.72998721 38.09761357 -73.06041374 38.09499968 -81.39084928 38.09374207 C-94.90542606 38.09155178 -108.41999681 38.08489233 -121.93457031 38.07543945 C-135.06510386 38.06626473 -148.19563577 38.05918419 -161.32617188 38.05493164 C-162.13512223 38.05466892 -162.94407258 38.05440619 -163.77753659 38.05413551 C-167.83567862 38.0528305 -171.89382066 38.05156679 -175.95196271 38.05032361 C-209.63464618 38.03995172 -243.31732235 38.02233404 -277 38 C-277 37.67 -277 37.34 -277 37 C-142.36 36.505 -142.36 36.505 -5 36 C-5 35.34 -5 34.68 -5 34 C-2.54007859 31.39951165 -0.05279813 29.04199851 2.75 26.8125 C5.99184325 22.76019594 5.90567183 19.06227872 6 14 C6.01546875 13.27296875 6.0309375 12.5459375 6.046875 11.796875 C6.05987485 10.19789317 6.03475341 8.59865697 6 7 C5.01 6.67 4.02 6.34 3 6 C1.3125 2.9375 1.3125 2.9375 0 0 Z " fill="#1A1A1A" transform="translate(682,448)"/>
<path d="M0 0 C1.21658142 0.00027654 1.21658142 0.00027654 2.45774025 0.00055867 C3.31301872 -0.00311801 4.16829719 -0.0067947 5.04949319 -0.0105828 C7.9387909 -0.02166688 10.82805271 -0.02547161 13.71736854 -0.02927226 C15.78020033 -0.03553388 17.84303097 -0.0421804 19.90586036 -0.04918498 C25.53065908 -0.06663504 31.15544926 -0.07715989 36.78026837 -0.08539051 C40.2972665 -0.09053736 43.81426198 -0.09661356 47.33125824 -0.10290164 C58.34211332 -0.12197388 69.35296165 -0.13619475 80.36383009 -0.14451361 C93.05824287 -0.15426274 105.7524802 -0.18051282 118.44683123 -0.2210145 C128.26358221 -0.25125445 138.08028319 -0.26599036 147.89707983 -0.26929462 C153.75618579 -0.2716382 159.61510478 -0.28050671 165.47416061 -0.30575579 C170.99895627 -0.32917616 176.52344378 -0.33321391 182.04827636 -0.32299441 C184.06532646 -0.32250215 186.08239241 -0.32873014 188.09939522 -0.34255046 C216.76767063 -0.52782191 216.76767063 -0.52782191 227.3968119 7.14772969 C227.3968119 7.80772969 227.3968119 8.46772969 227.3968119 9.14772969 C228.0568119 9.18897969 228.7168119 9.23022969 229.3968119 9.27272969 C233.13327257 10.36253072 235.50546872 12.2804599 238.5296244 14.67507344 C240.09449125 15.90928851 241.73852605 17.04220579 243.3968119 18.14772969 C243.3968119 18.80772969 243.3968119 19.46772969 243.3968119 20.14772969 C239.61954102 18.33463967 236.02411368 16.2404038 232.3968119 14.14772969 C232.3968119 13.48772969 232.3968119 12.82772969 232.3968119 12.14772969 C231.67235878 12.02269063 230.94790565 11.89765157 230.2014994 11.76882344 C227.45853708 11.16139864 225.10450303 10.30354144 222.5218119 9.21022969 C214.43200626 5.92672035 207.08312745 4.68973296 198.3968119 4.14772969 C198.3968119 3.48772969 198.3968119 2.82772969 198.3968119 2.14772969 C173.04884328 2.10095504 147.70088116 2.06571407 122.35287803 2.04410535 C110.58267723 2.03380421 98.81250328 2.01976611 87.04231972 1.99685079 C76.78032397 1.97688132 66.51834769 1.96400481 56.25633305 1.95955271 C50.82552201 1.95695135 45.39476662 1.95086127 39.96397346 1.93626958 C34.84555738 1.92262946 29.72721953 1.91852 24.608787 1.92151433 C22.73680645 1.92096704 20.86482311 1.9170281 18.99285835 1.90931875 C4.58167821 1.79666517 4.58167821 1.79666517 -9.6031881 4.14772969 C-9.9331881 4.47772969 -10.2631881 4.80772969 -10.6031881 5.14772969 C-12.26935925 5.18836802 -13.93706905 5.1904507 -15.6031881 5.14772969 C-15.2731881 4.15772969 -14.9431881 3.16772969 -14.6031881 2.14772969 C-12.55240685 1.91986511 -10.5016256 1.69200053 -8.45084435 1.46413594 C-5.47680166 0.95483899 -3.37848366 0.02061412 0 0 Z " fill="#3A3A3A" transform="translate(476.60318809747696,387.8522703051567)"/>
<path d="M0 0 C-4.39795502 3.4958104 -7.54067932 4.49568472 -13.14453125 4.82421875 C-15.01500342 4.80258197 -15.01500342 4.80258197 -16 6 C-18.83166367 6.24234794 -21.64048365 6.42212899 -24.47792053 6.55441284 C-25.33616269 6.59654022 -26.19440485 6.6386676 -27.07865435 6.68207157 C-35.50560689 7.06885039 -43.91901441 7.14148229 -52.35327148 7.12939453 C-53.98862751 7.13075512 -55.62398322 7.13253869 -57.25933838 7.13470459 C-61.63752351 7.13920126 -66.01568465 7.1375218 -70.39387012 7.1343255 C-75.01689888 7.13176075 -79.63992585 7.13415078 -84.26295471 7.13571167 C-92.02174237 7.13752169 -99.78052045 7.13515809 -107.53930664 7.13037109 C-116.45579339 7.12493267 -125.37225724 7.12669283 -134.28874344 7.1321975 C-142.00062994 7.13676441 -149.71250963 7.13736174 -157.42439705 7.13475883 C-162.00561113 7.13321536 -166.58681452 7.13294836 -171.16802788 7.13629532 C-207.5897312 7.15939467 -207.5897312 7.15939467 -224 6 C-224 5.34 -224 4.68 -224 4 C-157.01 4.33 -90.02 4.66 -21 5 C-21 4.34 -21 3.68 -21 3 C-18.36 3 -15.72 3 -13 3 C-13 2.34 -13 1.68 -13 1 C-10.7464485 -0.12677575 -8.99759671 -0.34118219 -6.5 -0.625 C-5.7059375 -0.72039063 -4.911875 -0.81578125 -4.09375 -0.9140625 C-2 -1 -2 -1 0 0 Z " fill="#C2C2C2" transform="translate(733,629)"/>
<path d="M0 0 C15.48112783 -0.02333859 30.96225435 -0.04098391 46.44339561 -0.05181217 C53.63121503 -0.05697308 60.81902353 -0.06401189 68.00683594 -0.07543945 C74.27019115 -0.08539253 80.53353845 -0.09185492 86.79690135 -0.09408849 C90.11468721 -0.09539454 93.43244512 -0.09899419 96.75022507 -0.10573006 C100.44987096 -0.11294526 104.14946935 -0.11399073 107.84912109 -0.11352539 C108.95466843 -0.11712067 110.06021576 -0.12071594 111.19926453 -0.12442017 C112.20329819 -0.1230455 113.20733185 -0.12167084 114.24179077 -0.12025452 C115.55534577 -0.12163721 115.55534577 -0.12163721 116.89543724 -0.12304783 C119 0 119 0 121 1 C121 3.31 121 5.62 121 8 C120.34 8 119.68 8 119 8 C118.814375 9.11375 118.814375 9.11375 118.625 10.25 C118.04513299 12.80141485 117.26291261 14.7267573 116 17 C115.34 17 114.68 17 114 17 C114 17.99 114 18.98 114 20 C113.34 20 112.68 20 112 20 C111.89945313 20.58007812 111.79890625 21.16015625 111.6953125 21.7578125 C109.60833281 28.48773577 102.26897549 33.69879552 97 38 C96.34 37.67 95.68 37.34 95 37 C96.375 35 96.375 35 98 33 C98.66 33 99.32 33 100 33 C100 32.01 100 31.02 100 30 C100.99 30 101.98 30 103 30 C103.33 28.68 103.66 27.36 104 26 C104.66 26 105.32 26 106 26 C106.103125 25.360625 106.20625 24.72125 106.3125 24.0625 C106.539375 23.381875 106.76625 22.70125 107 22 C107.99 21.67 108.98 21.34 110 21 C110.73323796 18.98491642 110.73323796 18.98491642 111 17 C111.66 17 112.32 17 113 17 C113.33 15.68 113.66 14.36 114 13 C115.32 9.37 116.64 5.74 118 2 C79.06 1.67 40.12 1.34 0 1 C0 0.67 0 0.34 0 0 Z " fill="#292929" transform="translate(655,581)"/>
<path d="M0 0 C0.54140625 0.22558594 1.0828125 0.45117188 1.640625 0.68359375 C0.980625 1.34359375 0.320625 2.00359375 -0.359375 2.68359375 C-1.349375 2.68359375 -2.339375 2.68359375 -3.359375 2.68359375 C-3.689375 3.67359375 -4.019375 4.66359375 -4.359375 5.68359375 C-7.359375 7.68359375 -7.359375 7.68359375 -10.359375 7.68359375 C-10.359375 8.67359375 -10.359375 9.66359375 -10.359375 10.68359375 C-12.0390625 12.4375 -12.0390625 12.4375 -14.234375 14.24609375 C-14.95367187 14.84550781 -15.67296875 15.44492187 -16.4140625 16.0625 C-17.37699219 16.86494141 -17.37699219 16.86494141 -18.359375 17.68359375 C-19.019375 18.34359375 -19.679375 19.00359375 -20.359375 19.68359375 C-21.349375 19.68359375 -22.339375 19.68359375 -23.359375 19.68359375 C-24.019375 21.66359375 -24.679375 23.64359375 -25.359375 25.68359375 C-26.349375 25.68359375 -27.339375 25.68359375 -28.359375 25.68359375 C-28.6996875 26.82828125 -28.6996875 26.82828125 -29.046875 27.99609375 C-30.53409789 32.17448188 -32.44048194 36.04184837 -34.43359375 40 C-35.48356062 43.04357486 -35.26796404 44.6384438 -34.359375 47.68359375 C-35.679375 47.35359375 -36.999375 47.02359375 -38.359375 46.68359375 C-38.5393678 41.46380247 -38.33032308 37.61096394 -36.359375 32.68359375 C-35.699375 32.68359375 -35.039375 32.68359375 -34.359375 32.68359375 C-34.029375 31.36359375 -33.699375 30.04359375 -33.359375 28.68359375 C-32.699375 28.68359375 -32.039375 28.68359375 -31.359375 28.68359375 C-31.2975 27.98234375 -31.235625 27.28109375 -31.171875 26.55859375 C-30.04262693 22.56279288 -28.26215442 20.65548697 -25.359375 17.68359375 C-24.369375 17.68359375 -23.379375 17.68359375 -22.359375 17.68359375 C-22.25625 17.04421875 -22.153125 16.40484375 -22.046875 15.74609375 C-21.7065625 14.72515625 -21.7065625 14.72515625 -21.359375 13.68359375 C-20.369375 13.35359375 -19.379375 13.02359375 -18.359375 12.68359375 C-18.359375 12.02359375 -18.359375 11.36359375 -18.359375 10.68359375 C-17.699375 10.68359375 -17.039375 10.68359375 -16.359375 10.68359375 C-16.359375 10.02359375 -16.359375 9.36359375 -16.359375 8.68359375 C-15.369375 8.68359375 -14.379375 8.68359375 -13.359375 8.68359375 C-13.359375 7.69359375 -13.359375 6.70359375 -13.359375 5.68359375 C-11.61814951 4.64786479 -9.86600905 3.63046855 -8.109375 2.62109375 C-7.13484375 2.05261719 -6.1603125 1.48414063 -5.15625 0.8984375 C-2.359375 -0.31640625 -2.359375 -0.31640625 0 0 Z " fill="#2A2A2A" transform="translate(381.359375,491.31640625)"/>
<path d="M0 0 C0 0.66 0 1.32 0 2 C-5.55511022 4.90380762 -5.55511022 4.90380762 -8.3125 5.5 C-8.869375 5.665 -9.42625 5.83 -10 6 C-10.33 6.99 -10.66 7.98 -11 9 C-12.299375 9.5878125 -12.299375 9.5878125 -13.625 10.1875 C-17.45618365 12.24498752 -19.39266223 14.509564 -22.140625 17.8046875 C-26.39359715 22.82605377 -30.96063973 28.15794811 -37 31 C-37.66 31 -38.32 31 -39 31 C-39 28 -39 28 -36.625 25.3125 C-34 23 -34 23 -32 23 C-31.814375 22.1028125 -31.814375 22.1028125 -31.625 21.1875 C-31 19 -31 19 -29 16 C-28.01 15.690625 -27.02 15.38125 -26 15.0625 C-25.01 14.711875 -24.02 14.36125 -23 14 C-22.71640625 13.3915625 -22.4328125 12.783125 -22.140625 12.15625 C-18.77730227 5.79818784 -6.92035444 0 0 0 Z " fill="#171717" transform="translate(460,392)"/>
<path d="M0 0 C0.66 0 1.32 0 2 0 C2 1.65 2 3.3 2 5 C2.66 5 3.32 5 4 5 C5.19681078 8.27128281 6.03041831 11.22433502 6.5 14.6875 C6.77997994 18.12962965 6.77997994 18.12962965 9 21 C9.22705078 23.91088867 9.22705078 23.91088867 9.1953125 27.41796875 C9.18564453 29.29838867 9.18564453 29.29838867 9.17578125 31.21679688 C9.15902344 32.52712891 9.14226563 33.83746094 9.125 35.1875 C9.11496639 36.52277987 9.1058412 37.85806689 9.09765625 39.19335938 C9.07405292 42.46242015 9.04112594 45.73112028 9 49 C7.515 49.495 7.515 49.495 6 50 C6.04125 51.010625 6.0825 52.02125 6.125 53.0625 C5.99426157 57.18076052 5.26749214 60.11830533 4 64 C3.34 64 2.68 64 2 64 C2.40887031 58.00793508 3.31531235 52.25207764 4.5625 46.375 C7.07660286 34.03864232 6.07353249 21.91290565 1.6640625 10.04296875 C0.58902551 6.73564906 0.31408647 3.45495114 0 0 Z " fill="#393939" transform="translate(736,429)"/>
<path d="M0 0 C6.08639701 -0.43474264 11.37054425 0.3600865 17.25 1.8125 C17.93513672 1.97782227 18.62027344 2.14314453 19.32617188 2.31347656 C23.30046503 3.34291542 26.68306387 4.55086693 30 7 C30 7.66 30 8.32 30 9 C30.66 9.04125 31.32 9.0825 32 9.125 C35.73646067 10.21480103 38.10865682 12.13273021 41.1328125 14.52734375 C42.69767934 15.76155881 44.34171415 16.8944761 46 18 C46 18.66 46 19.32 46 20 C42.22272911 18.18690997 38.62730178 16.0926741 35 14 C35 13.34 35 12.68 35 12 C34.27554688 11.87496094 33.55109375 11.74992187 32.8046875 11.62109375 C30.06172518 11.01366895 27.70769113 10.15581174 25.125 9.0625 C17.03519436 5.77899065 9.68631555 4.54200327 1 4 C0.67 2.68 0.34 1.36 0 0 Z " fill="#727272" transform="translate(674,388)"/>
<path d="M0 0 C3.3125 0.625 3.3125 0.625 7 2 C9.9558826 6.51443888 10.33820774 10.04999312 10.1875 15.375 C10.16042969 16.62023437 10.13335938 17.86546875 10.10546875 19.1484375 C10.07066406 20.08945312 10.03585937 21.03046875 10 22 C9.34 22.33 8.68 22.66 8 23 C7.896875 23.928125 7.79375 24.85625 7.6875 25.8125 C7 29 7 29 4.875 31.1875 C1.65292281 33.21880953 -1.45747971 34.61077636 -5 36 C-5 34 -5 34 -2.8125 31.6875 C0 29 0 29 2.75 26.8125 C5.99184325 22.76019594 5.90567183 19.06227872 6 14 C6.01546875 13.27296875 6.0309375 12.5459375 6.046875 11.796875 C6.05987485 10.19789317 6.03475341 8.59865697 6 7 C5.01 6.67 4.02 6.34 3 6 C1.3125 2.9375 1.3125 2.9375 0 0 Z " fill="#7B7B7B" transform="translate(682,448)"/>
<path d="M0 0 C0.99 0.33 1.98 0.66 3 1 C2.1875 4.4375 2.1875 4.4375 1 8 C0.01 8.33 -0.98 8.66 -2 9 C-2.68025637 10.99541868 -3.34490497 12.99617991 -4 15 C-6.6464738 19.01533956 -8.62760042 20.2740528 -13 22 C-13.68486725 23.32407669 -14.34870203 24.65909241 -15 26 C-16.9099559 27.80699332 -18.92534799 29.3763593 -21 31 C-21.66 30.67 -22.32 30.34 -23 30 C-19.40128443 23.78403675 -14.3698309 18.73368368 -9 14 C-8.34 14 -7.68 14 -7 14 C-7 13.01 -7 12.02 -7 11 C-6.34 11 -5.68 11 -5 11 C-4.731875 10.113125 -4.46375 9.22625 -4.1875 8.3125 C-3.08289181 5.23122452 -1.77150856 2.73778595 0 0 Z " fill="#9A9A9A" transform="translate(735,494)"/>
<path d="M0 0 C0.66 0 1.32 0 2 0 C2 1.32 2 2.64 2 4 C1.34 4 0.68 4 0 4 C-0.12375 4.7425 -0.2475 5.485 -0.375 6.25 C-0.95486701 8.80141485 -1.73708739 10.7267573 -3 13 C-3.66 13 -4.32 13 -5 13 C-5 13.99 -5 14.98 -5 16 C-5.66 16 -6.32 16 -7 16 C-7.10054687 16.58007812 -7.20109375 17.16015625 -7.3046875 17.7578125 C-9.39166719 24.48773577 -16.73102451 29.69879552 -22 34 C-22.66 33.67 -23.32 33.34 -24 33 C-22.625 31 -22.625 31 -21 29 C-20.34 29 -19.68 29 -19 29 C-19 28.01 -19 27.02 -19 26 C-18.01 26 -17.02 26 -16 26 C-15.67 24.68 -15.34 23.36 -15 22 C-14.34 22 -13.68 22 -13 22 C-12.896875 21.360625 -12.79375 20.72125 -12.6875 20.0625 C-12.460625 19.381875 -12.23375 18.70125 -12 18 C-11.01 17.67 -10.02 17.34 -9 17 C-8.26676204 14.98491642 -8.26676204 14.98491642 -8 13 C-7.34 13 -6.68 13 -6 13 C-5.87625 12.4225 -5.7525 11.845 -5.625 11.25 C-4.99351176 8.97664233 -4.11141809 7.0746471 -3 5 C-2.34 5 -1.68 5 -1 5 C-0.67 3.35 -0.34 1.7 0 0 Z " fill="#777777" transform="translate(774,585)"/>
<path d="M0 0 C-4.39795502 3.4958104 -7.54067932 4.49568472 -13.14453125 4.82421875 C-15.01500342 4.80258197 -15.01500342 4.80258197 -16 6 C-34.16328103 8.13685659 -52.77549556 6.65336204 -71 6 C-71 5.67 -71 5.34 -71 5 C-54.5 5 -38 5 -21 5 C-21 4.34 -21 3.68 -21 3 C-18.36 3 -15.72 3 -13 3 C-13 2.34 -13 1.68 -13 1 C-10.7464485 -0.12677575 -8.99759671 -0.34118219 -6.5 -0.625 C-5.7059375 -0.72039063 -4.911875 -0.81578125 -4.09375 -0.9140625 C-2 -1 -2 -1 0 0 Z " fill="#B2B2B2" transform="translate(733,629)"/>
<path d="M0 0 C0.66 0.33 1.32 0.66 2 1 C1.56816406 1.52980469 1.13632812 2.05960938 0.69140625 2.60546875 C-3.85298691 9.03898609 -7.48218746 17.24229147 -9 25 C-8.67 25.99 -8.34 26.98 -8 28 C-9.32 27.67 -10.64 27.34 -12 27 C-12.1799928 21.78020872 -11.97094808 17.92737019 -10 13 C-9.34 13 -8.68 13 -8 13 C-7.67 11.68 -7.34 10.36 -7 9 C-6.34 9 -5.68 9 -5 9 C-4.9175 8.2575 -4.835 7.515 -4.75 6.75 C-3.8603054 3.48778646 -2.51496251 2.19045122 0 0 Z " fill="#4A4A4A" transform="translate(355,511)"/>
<path d="M0 0 C0.99 0.33 1.98 0.66 3 1 C3 1.66 3 2.32 3 3 C3.78375 3.144375 4.5675 3.28875 5.375 3.4375 C8 4 8 4 10 5 C10 5.99 10 6.98 10 8 C10.61875 8.0825 11.2375 8.165 11.875 8.25 C14 9 14 9 15.25 11.0625 C15.4975 11.701875 15.745 12.34125 16 13 C17.32 13 18.64 13 20 13 C20 13.99 20 14.98 20 16 C17.83125748 15.49396008 16.00032373 15.00016187 14 14 C14 13.34 14 12.68 14 12 C13.2575 11.938125 12.515 11.87625 11.75 11.8125 C8.146624 10.74786618 7.2452874 8.94693971 5 6 C4.0925 5.46375 3.185 4.9275 2.25 4.375 C1.5075 3.92125 0.765 3.4675 0 3 C0 2.01 0 1.02 0 0 Z " fill="#878787" transform="translate(466,610)"/>
<path d="M0 0 C3.3125 0.625 3.3125 0.625 7 2 C9.9558826 6.51443888 10.33820774 10.04999312 10.1875 15.375 C10.16042969 16.62023437 10.13335938 17.86546875 10.10546875 19.1484375 C10.07066406 20.08945312 10.03585937 21.03046875 10 22 C9.01 22.33 8.02 22.66 7 23 C7.06960938 21.66195313 7.06960938 21.66195313 7.140625 20.296875 C7.17671875 19.12640625 7.2128125 17.9559375 7.25 16.75 C7.31960938 15.00976562 7.31960938 15.00976562 7.390625 13.234375 C6.92145228 9.34962485 5.91141718 8.4768773 3 6 C1.93988057 4.03120677 0.92529151 2.03564133 0 0 Z " fill="#2E2E2E" transform="translate(682,448)"/>
<path d="M0 0 C0.66 0 1.32 0 2 0 C2.67354499 1.43429001 3.33859701 2.87257057 4 4.3125 C4.556875 5.51326172 4.556875 5.51326172 5.125 6.73828125 C6 9 6 9 6 12 C6.598125 12.2475 7.19625 12.495 7.8125 12.75 C10.37663767 14.21522152 11.48426322 15.47377203 13 18 C13.6875 20.75 13.6875 20.75 14 23 C13.34 23 12.68 23 12 23 C12 22.34 12 21.68 12 21 C11.34 21 10.68 21 10 21 C10 20.34 10 19.68 10 19 C9.01 19 8.02 19 7 19 C7 17.35 7 15.7 7 14 C6.34 14 5.68 14 5 14 C1.93757784 9.15939723 0.46588495 5.70709064 0 0 Z " fill="#888888" transform="translate(452,587)"/>
<path d="M0 0 C-2.75927344 2.75927344 -5.21154052 2.51783243 -9 3 C-9.33 3.33 -9.66 3.66 -10 4 C-11.62139437 4.12494616 -13.24884122 4.17571624 -14.875 4.1875 C-15.75929688 4.20167969 -16.64359375 4.21585938 -17.5546875 4.23046875 C-20 4 -20 4 -23 2 C-18.94796725 0.11622766 -15.38261775 -0.39749767 -10.9375 -0.6875 C-9.72964844 -0.77386719 -8.52179687 -0.86023438 -7.27734375 -0.94921875 C-4.54247649 -0.99159452 -2.56659879 -0.85126593 0 0 Z " fill="#656565" transform="translate(693,535)"/>
<path d="M0 0 C0.54140625 0.22558594 1.0828125 0.45117188 1.640625 0.68359375 C0.980625 1.34359375 0.320625 2.00359375 -0.359375 2.68359375 C-1.349375 2.68359375 -2.339375 2.68359375 -3.359375 2.68359375 C-3.689375 3.67359375 -4.019375 4.66359375 -4.359375 5.68359375 C-6.7578125 7.32421875 -6.7578125 7.32421875 -9.734375 8.93359375 C-11.20003906 9.74570312 -11.20003906 9.74570312 -12.6953125 10.57421875 C-15.359375 11.68359375 -15.359375 11.68359375 -18.359375 10.68359375 C-17.699375 10.68359375 -17.039375 10.68359375 -16.359375 10.68359375 C-16.359375 10.02359375 -16.359375 9.36359375 -16.359375 8.68359375 C-15.369375 8.68359375 -14.379375 8.68359375 -13.359375 8.68359375 C-13.359375 7.69359375 -13.359375 6.70359375 -13.359375 5.68359375 C-11.61814951 4.64786479 -9.86600905 3.63046855 -8.109375 2.62109375 C-6.64757812 1.76837891 -6.64757812 1.76837891 -5.15625 0.8984375 C-2.359375 -0.31640625 -2.359375 -0.31640625 0 0 Z " fill="#898989" transform="translate(381.359375,491.31640625)"/>
<path d="M0 0 C0.33 0.99 0.66 1.98 1 3 C0.401875 3.556875 -0.19625 4.11375 -0.8125 4.6875 C-3.05986733 6.876762 -3.05986733 6.876762 -4.375 9.4375 C-6.47561787 12.75001279 -8.91050949 14.59706294 -12 17 C-12.66 16.67 -13.32 16.34 -14 16 C-10.36558725 9.72237798 -5.18706746 5.00888576 0 0 Z " fill="#646464" transform="translate(726,508)"/>
<path d="M0 0 C0 0.66 0 1.32 0 2 C-0.969375 2.474375 -1.93875 2.94875 -2.9375 3.4375 C-5.80477437 4.70193947 -5.80477437 4.70193947 -7 6 C-8.66617115 6.04063832 -10.33388095 6.042721 -12 6 C-12 6.66 -12 7.32 -12 8 C-13.64453125 9.32421875 -13.64453125 9.32421875 -15.8125 10.6875 C-16.52019531 11.14511719 -17.22789062 11.60273438 -17.95703125 12.07421875 C-20 13 -20 13 -23 12 C-18.85665264 8.3619389 -14.86170035 5.60448233 -10 3 C-8.948125 2.4225 -7.89625 1.845 -6.8125 1.25 C-4 0 -4 0 0 0 Z " fill="#898989" transform="translate(460,392)"/>
<path d="M0 0 C0.99 0.33 1.98 0.66 3 1 C3 1.66 3 2.32 3 3 C3.66 3.04125 4.32 3.0825 5 3.125 C8.73646067 4.21480103 11.10865682 6.13273021 14.1328125 8.52734375 C15.69767934 9.76155881 17.34171415 10.8944761 19 12 C19 12.66 19 13.32 19 14 C15.22272911 12.18690997 11.62730178 10.0926741 8 8 C8 7.34 8 6.68 8 6 C7.236875 5.855625 6.47375 5.71125 5.6875 5.5625 C3 5 3 5 0 4 C0 2.68 0 1.36 0 0 Z " fill="#9C9C9C" transform="translate(701,394)"/>
<path d="M0 0 C-4.63580151 3.66820431 -7.92127992 4.54999365 -13.875 4.25 C-14.56335938 4.23195313 -15.25171875 4.21390625 -15.9609375 4.1953125 C-17.6412381 4.14863748 -19.32081163 4.07690939 -21 4 C-21 3.67 -21 3.34 -21 3 C-18.36 3 -15.72 3 -13 3 C-13 2.34 -13 1.68 -13 1 C-10.7464485 -0.12677575 -8.99759671 -0.34118219 -6.5 -0.625 C-5.30890625 -0.76808594 -5.30890625 -0.76808594 -4.09375 -0.9140625 C-2 -1 -2 -1 0 0 Z " fill="#676767" transform="translate(733,629)"/>
<path d="M0 0 C-2.48287565 6.09433114 -8.03391309 9.95783623 -13 14 C-13.66 13.67 -14.32 13.34 -15 13 C-13.625 11 -13.625 11 -12 9 C-11.34 9 -10.68 9 -10 9 C-10 8.01 -10 7.02 -10 6 C-9.01 6 -8.02 6 -7 6 C-6.9175 5.38125 -6.835 4.7625 -6.75 4.125 C-6 2 -6 2 -4.0625 0.75 C-2 0 -2 0 0 0 Z " fill="#A3A3A3" transform="translate(765,605)"/>
<path d="M0 0 C1.65 0 3.3 0 5 0 C3.98194194 2.7224474 3.32876756 3.81442388 0.7578125 5.265625 C-0.11101563 5.59046875 -0.97984375 5.9153125 -1.875 6.25 C-3.17050781 6.75273438 -3.17050781 6.75273438 -4.4921875 7.265625 C-7 8 -7 8 -11 8 C-10.67 7.01 -10.34 6.02 -10 5 C-7.69175158 4.28976972 -5.41696017 3.98738636 -3.03125 3.625 C-2.3609375 3.41875 -1.690625 3.2125 -1 3 C-0.67 2.01 -0.34 1.02 0 0 Z " fill="#9D9D9D" transform="translate(705,526)"/>
<path d="M0 0 C3.3 0.33 6.6 0.66 10 1 C10.33 1.99 10.66 2.98 11 4 C13.31 4.33 15.62 4.66 18 5 C18 5.66 18 6.32 18 7 C13.48939946 7.39799417 10.93543619 6.12513554 7 4 C4.681374 2.96222788 2.34233228 1.98377956 0 1 C0 0.67 0 0.34 0 0 Z " fill="#A0A0A0" transform="translate(486,626)"/>
<path d="M0 0 C0.99 0.33 1.98 0.66 3 1 C2.55398438 1.40089844 2.10796875 1.80179687 1.6484375 2.21484375 C-0.18961103 4.20533706 -1.18351304 6.13554501 -2.375 8.5625 C-4.63745512 12.79858618 -4.63745512 12.79858618 -7.8125 14.5625 C-8.534375 14.706875 -9.25625 14.85125 -10 15 C-10 12 -10 12 -7.625 9.3125 C-5 7 -5 7 -3 7 C-2.814375 6.1028125 -2.814375 6.1028125 -2.625 5.1875 C-2 3 -2 3 0 0 Z " fill="#959595" transform="translate(431,408)"/>
<path d="M0 0 C1.134375 0.020625 2.26875 0.04125 3.4375 0.0625 C1.4375 3.0625 1.4375 3.0625 -0.69140625 3.5390625 C-1.49449219 3.58804687 -2.29757812 3.63703125 -3.125 3.6875 C-6.14326447 3.66612942 -6.14326447 3.66612942 -8.5625 5.0625 C-10.22867115 5.10313832 -11.89638095 5.105221 -13.5625 5.0625 C-13.2325 4.0725 -12.9025 3.0825 -12.5625 2.0625 C-10.51171875 1.83463542 -8.4609375 1.60677083 -6.41015625 1.37890625 C-3.20046765 0.82925556 -4.00105232 0.0701939 0 0 Z " fill="#878787" transform="translate(474.5625,387.9375)"/>
<path d="M0 0 C0.66 0 1.32 0 2 0 C2 1.65 2 3.3 2 5 C2.66 5 3.32 5 4 5 C5.59138085 9.17737474 6.21278058 12.53160785 6 17 C5.34 17 4.68 17 4 17 C1.90429574 11.30601106 0.54981916 6.04801071 0 0 Z " fill="#8B8B8B" transform="translate(736,429)"/>
<path d="M0 0 C0.66 0 1.32 0 2 0 C2 3.96 2 7.92 2 12 C0.35 11.67 -1.3 11.34 -3 11 C-3 9.35 -3 7.7 -3 6 C-2.01 6 -1.02 6 0 6 C0 4.02 0 2.04 0 0 Z " fill="#818181" transform="translate(415,431)"/>
<path d="M0 0 C0 0.66 0 1.32 0 2 C-1.74122549 3.03572896 -3.49336595 4.0531252 -5.25 5.0625 C-6.71179688 5.91521484 -6.71179688 5.91521484 -8.203125 6.78515625 C-11 8 -11 8 -13.359375 7.68359375 C-13.90078125 7.45800781 -14.4421875 7.23242188 -15 7 C-14.34 7 -13.68 7 -13 7 C-13 6.34 -13 5.68 -13 5 C-12.01 5 -11.02 5 -10 5 C-10 4.34 -10 3.68 -10 3 C-8.70990357 2.49596232 -7.41786211 1.99690074 -6.125 1.5 C-5.40570312 1.2215625 -4.68640625 0.943125 -3.9453125 0.65625 C-2 0 -2 0 0 0 Z " fill="#919191" transform="translate(749,620)"/>
<path d="M0 0 C0.99 0.33 1.98 0.66 3 1 C2.34 3.31 1.68 5.62 1 8 C-0.65 8.33 -2.3 8.66 -4 9 C-2.80100302 5.9168649 -1.52299523 2.93720508 0 0 Z " fill="#727272" transform="translate(735,494)"/>
<path d="M0 0 C4.21878192 -0.19622241 7.17010894 0.19769832 11 2 C11 2.66 11 3.32 11 4 C11.66 4 12.32 4 13 4 C12.67 4.66 12.34 5.32 12 6 C11.505 5.71125 11.01 5.4225 10.5 5.125 C7.08247965 3.58711584 3.6493798 2.85152195 0 2 C0 1.34 0 0.68 0 0 Z " fill="#BBBBBB" transform="translate(669,442)"/>
<path d="M0 0 C0.99 0 1.98 0 3 0 C3.66 3.63 4.32 7.26 5 11 C4.01 11 3.02 11 2 11 C0.19769832 7.17010894 -0.19622241 4.21878192 0 0 Z " fill="#CBCBCB" transform="translate(448,579)"/>
<path d="M0 0 C0.99 0.33 1.98 0.66 3 1 C3 1.66 3 2.32 3 3 C3.78375 3.144375 4.5675 3.28875 5.375 3.4375 C8 4 8 4 10 5 C10 5.99 10 6.98 10 8 C5.99541169 7.38390949 3.16980331 5.44939347 0 3 C0 2.01 0 1.02 0 0 Z " fill="#686868" transform="translate(466,610)"/>
<path d="M0 0 C0.33 0.66 0.66 1.32 1 2 C1.86625 2.37125 1.86625 2.37125 2.75 2.75 C6.10055774 4.61142096 7.76891344 6.87647882 10 10 C9.67 10.99 9.34 11.98 9 13 C8.34 11.68 7.68 10.36 7 9 C6.34 9 5.68 9 5 9 C0 3.64285714 0 3.64285714 0 0 Z " fill="#AAAAAA" transform="translate(721,408)"/>
<path d="M0 0 C0.598125 0.309375 1.19625 0.61875 1.8125 0.9375 C4.08956772 2.10209704 4.08956772 2.10209704 7 3 C8.9417843 5.87384077 10.45957258 8.89931133 12 12 C6.88327027 8.49777237 3.09355668 5.41372419 0 0 Z " fill="#3D3D3D" transform="translate(714,405)"/>
<path d="M0 0 C2.10633718 1.70828921 2.93801608 2.52148416 3.29296875 5.26171875 C3.25816406 6.06222656 3.22335937 6.86273438 3.1875 7.6875 C3.16042969 8.49574219 3.13335938 9.30398438 3.10546875 10.13671875 C3.07066406 10.75160156 3.03585937 11.36648438 3 12 C2.34 12 1.68 12 1 12 C0.01751476 7.9472484 -0.08159574 4.16138263 0 0 Z " fill="#C2C2C2" transform="translate(742,447)"/>
<path d="M0 0 C0.33 0.66 0.66 1.32 1 2 C0.34 2 -0.32 2 -1 2 C-1.309375 2.61875 -1.61875 3.2375 -1.9375 3.875 C-2.625 5.25 -3.3125 6.625 -4 8 C-6.3140622 8.73075648 -8.64828869 9.40138258 -11 10 C-8.19195732 7.03595495 -5.81684226 4.55500981 -2 3 C-2 2.34 -2 1.68 -2 1 C-1.34 0.67 -0.68 0.34 0 0 Z " fill="#3B3B3B" transform="translate(754,612)"/>
<path d="M0 0 C0.66 0 1.32 0 2 0 C1.3125 3.375 1.3125 3.375 0 7 C-2.625 8.4375 -2.625 8.4375 -5 9 C-4.6875 7.0625 -4.6875 7.0625 -4 5 C-3.01 4.67 -2.02 4.34 -1 4 C-0.26676204 1.98491642 -0.26676204 1.98491642 0 0 Z " fill="#666666" transform="translate(766,598)"/>
<path d="M0 0 C0 0.66 0 1.32 0 2 C-1.26839526 2.50615298 -2.53983102 3.00469099 -3.8125 3.5 C-4.87404297 3.91765625 -4.87404297 3.91765625 -5.95703125 4.34375 C-8 5 -8 5 -11 5 C-10 2 -10 2 -7.75 0.8125 C-5.00208853 0.00061706 -2.84552111 -0.16260121 0 0 Z " fill="#B8B8B8" transform="translate(394,486)"/>
<path d="M0 0 C0.99 0.33 1.98 0.66 3 1 C2.278125 1.556875 1.55625 2.11375 0.8125 2.6875 C-1.97457299 4.97909334 -4.48641528 7.41459857 -7 10 C-6.42562214 6.12294944 -4.57271945 3.88456423 -2 1 C-1.34 0.67 -0.68 0.34 0 0 Z " fill="#484848" transform="translate(437,405)"/>
<path d="M0 0 C0.66 0 1.32 0 2 0 C2 2.97 2 5.94 2 9 C1.01 9.33 0.02 9.66 -1 10 C-0.67 6.7 -0.34 3.4 0 0 Z " fill="#C0C0C0" transform="translate(743,469)"/>
<path d="M0 0 C2.31 0 4.62 0 7 0 C6.67 0.99 6.34 1.98 6 3 C2.7 3 -0.6 3 -4 3 C-2.68 2.67 -1.36 2.34 0 2 C0 1.34 0 0.68 0 0 Z " fill="#B9B9B9" transform="translate(677,536)"/>
<path d="M0 0 C0.33 0 0.66 0 1 0 C1.26252625 4.33168317 0.29243536 7.8803623 -1 12 C-1.66 12 -2.32 12 -3 12 C-2.67 8.7 -2.34 5.4 -2 2 C-1.34 2 -0.68 2 0 2 C0 1.34 0 0.68 0 0 Z " fill="#949494" transform="translate(741,481)"/>
<path d="M0 0 C1.65 0 3.3 0 5 0 C4.34 1.32 3.68 2.64 3 4 C0.69 4 -1.62 4 -4 4 C-3.01 3.67 -2.02 3.34 -1 3 C-0.67 2.01 -0.34 1.02 0 0 Z " fill="#8F8F8F" transform="translate(705,526)"/>
<path d="M0 0 C0.66 0 1.32 0 2 0 C2 1.32 2 2.64 2 4 C1.34 4 0.68 4 0 4 C-0.33 5.65 -0.66 7.3 -1 9 C-1.66 8.34 -2.32 7.68 -3 7 C-2.01 4.69 -1.02 2.38 0 0 Z " fill="#ACACAC" transform="translate(774,585)"/>
<path d="M0 0 C0.66 0 1.32 0 2 0 C1.1875 3.4375 1.1875 3.4375 0 7 C-0.99 7.33 -1.98 7.66 -3 8 C-3 6.68 -3 5.36 -3 4 C-2.34 4 -1.68 4 -1 4 C-0.67 2.68 -0.34 1.36 0 0 Z " fill="#B8B8B8" transform="translate(348,520)"/>
<path d="M0 0 C0.66 0 1.32 0 2 0 C1.42655063 2.86724686 1.1385485 3.8614515 -1 6 C-3.125 5.625 -3.125 5.625 -5 5 C-4.01 5 -3.02 5 -2 5 C-1.7834375 4.0409375 -1.7834375 4.0409375 -1.5625 3.0625 C-1 1 -1 1 0 0 Z " fill="#888888" transform="translate(361,504)"/>
<path d="M0 0 C0.66 0 1.32 0 2 0 C2 1.65 2 3.3 2 5 C2.66 5 3.32 5 4 5 C4 6.32 4 7.64 4 9 C3.01 8.67 2.02 8.34 1 8 C0.67 5.36 0.34 2.72 0 0 Z " fill="#999999" transform="translate(736,429)"/>
<path d="M0 0 C0.66 0 1.32 0 2 0 C2 0.99 2 1.98 2 3 C2.99 3.33 3.98 3.66 5 4 C5 4.66 5 5.32 5 6 C3.68 6 2.36 6 1 6 C0.67 4.02 0.34 2.04 0 0 Z " fill="#A1A1A1" transform="translate(731,421)"/>
<path d="M0 0 C-0.33 0.66 -0.66 1.32 -1 2 C-2.98 2 -4.96 2 -7 2 C-7 1.34 -7 0.68 -7 0 C-4.3333581 -1.33332095 -2.83319697 -0.67102033 0 0 Z " fill="#BEBEBE" transform="translate(728,631)"/>
<path d="M0 0 C0.66 0 1.32 0 2 0 C3.76462683 3.08809695 4 4.23312136 4 8 C3.01 7.67 2.02 7.34 1 7 C0.67 4.69 0.34 2.38 0 0 Z " fill="#666666" transform="translate(452,587)"/>
<path d="M0 0 C0.66 0.33 1.32 0.66 2 1 C0.02 3.31 -1.96 5.62 -4 8 C-4.33 7.01 -4.66 6.02 -5 5 C-3.35 3.35 -1.7 1.7 0 0 Z " fill="#BFBFBF" transform="translate(355,511)"/>
<path d="M0 0 C0 3 0 3 -2.5 5.6875 C-3.325 6.450625 -4.15 7.21375 -5 8 C-5 5 -5 5 -2.5 2.3125 C-1.675 1.549375 -0.85 0.78625 0 0 Z " fill="#A4A4A4" transform="translate(687,472)"/>
<path d="M0 0 C1.875 0.3125 1.875 0.3125 4 1 C6 4 6 4 6 7 C3 6 3 6 1.3125 2.9375 C0.879375 1.968125 0.44625 0.99875 0 0 Z " fill="#BEBEBE" transform="translate(682,448)"/>
<path d="M0 0 C0.99 0 1.98 0 3 0 C3 1.98 3 3.96 3 6 C2.01 5.67 1.02 5.34 0 5 C0 3.35 0 1.7 0 0 Z " fill="#EAEAEA" transform="translate(412,437)"/>
<path d="M0 0 C2.475 0.495 2.475 0.495 5 1 C5 2.65 5 4.3 5 6 C4.01 5.67 3.02 5.34 2 5 C0.8125 2.4375 0.8125 2.4375 0 0 Z " fill="#444444" transform="translate(732,427)"/>
<path d="M0 0 C0.66 0.33 1.32 0.66 2 1 C0.35 2.65 -1.3 4.3 -3 6 C-3.99 5.67 -4.98 5.34 -6 5 C-4.02 3.35 -2.04 1.7 0 0 Z " fill="#9C9C9C" transform="translate(443,399)"/>
</svg>
